<svg width="65" height="64" viewBox="0 0 65 64" fill="none" xmlns="http://www.w3.org/2000/svg">
<path d="M57.5 18C57.5 11.383 52.117 6 45.5 6C38.883 6 33.5 11.383 33.5 18H14.5C12.846 18 11.5 19.346 11.5 21V22H9.5C8.397 22 7.5 22.897 7.5 24V52C7.5 53.103 8.397 54 9.5 54H11.5V55C11.5 56.654 12.846 58 14.5 58H42.5C44.154 58 45.5 56.654 45.5 55V54H47.5C48.603 54 49.5 53.103 49.5 52V29.3C54.153 27.647 57.5 23.213 57.5 18ZM9.5 52V24H11.5V52H9.5ZM42.5 56H14.5C13.948 56 13.5 55.552 13.5 55V21C13.5 20.448 13.948 20 14.5 20H33.5V30H43.5V55C43.5 55.552 43.052 56 42.5 56ZM47.5 52H45.5V30C46.183 30 46.848 29.929 47.5 29.819V52ZM45.5 28H35.5V18C35.5 12.486 39.986 8 45.5 8C51.014 8 55.5 12.486 55.5 18C55.5 23.514 51.014 28 45.5 28Z" fill="#967CC0"/>
<path d="M43.75 20.586L40.457 17.293L39.043 18.707L43.75 23.414L51.957 15.207L50.543 13.793L43.75 20.586Z" fill="#00C9A6"/>
<path d="M34.853 36C33.263 36 31.824 35.059 31.186 33.601L29.354 34.404C30.31 36.588 32.469 38 34.853 38C37.239 38 39.398 36.587 40.353 34.4L38.521 33.6C37.883 35.058 36.443 36 34.853 36Z" fill="#00C9A6"/>
<path d="M26.2789 34.249L24.3409 33.751C24.0009 35.075 22.8069 36 21.4369 36C20.0689 36 18.8739 35.076 18.5319 33.753L16.5959 34.253C17.1649 36.459 19.1559 38 21.4369 38C23.7189 38 25.7099 36.458 26.2789 34.249Z" fill="#00C9A6"/>
<g clip-path="url(#clip0_17_54)">
<rect x="16.8513" y="18" width="13" height="2" fill="#967CC0"/>
<path fill-rule="evenodd" clip-rule="evenodd" d="M18.4589 12.3986L18.6874 13.5002L17.5858 13.7286L18.4715 18L19.6204 18L18.6874 13.5002L23.0936 12.5865L25.1494 22.5007L22.9462 22.9575L21.4615 15.7973L20.36 16.0257L21.8447 23.1859L22.9462 22.9575L23.1747 24.0591L25.3778 23.6022L25.1494 22.5007L26.2509 22.2722L24.1952 12.3581L23.0936 12.5865L22.8652 11.485L18.4589 12.3986ZM19.3009 22L20.4498 22L20.63 22.8687L19.6783 23.8203L19.3009 22ZM27.0885 18L28.2374 18L28.0912 17.2949L28.642 17.1807L28.1852 14.9776L27.0836 15.206L27.5404 17.4091L26.9896 17.5233L27.0885 18Z" fill="#EAEAEA"/>
</g>
<path d="M32.831 41.499C31.939 43.042 30.28 44 28.5 44C26.722 44 25.062 43.042 24.169 41.501L22.439 42.503C23.687 44.66 26.011 46 28.5 46C30.992 46 33.315 44.659 34.563 42.501L32.831 41.499Z" fill="#00C9A6"/>
<path d="M15.5 28V23C15.5 22.448 15.948 22 16.5 22H21.5L15.5 28Z" fill="#967CC0"/>
<path d="M38.5 52H34.5V54H38.5V52Z" fill="#967CC0"/>
<path d="M30.5 52H26.5V54H30.5V52Z" fill="#967CC0"/>
<path d="M22.5 52H18.5V54H22.5V52Z" fill="#967CC0"/>
<defs>
<clipPath id="clip0_17_54">
<rect width="18" height="18" fill="white" transform="translate(11.5 13.6607) rotate(-19.512)"/>
</clipPath>
</defs>
</svg>
